# xmcd CD database file
#
# Track frame offsets:
#	180
#	14797
#	34610
#	52340
#	74192
#	86230
#	113025
#	132097
#	151692
#
# Disc length: 2321 seconds
#
# Revision: 2
# Processed by: cddbd v1.5.2PL0 Copyright (c) Steve Scherf et al.
# Submitted via: CDex 1.70beta2
#
DISCID=7f090f09
DTITLE=John Mayall - Road Show
DYEAR=1981
DGENRE=Blues
TTITLE0=Why Worry
TTITLE1=Road Show
TTITLE2=Mama Talk To Your Daughter
TTITLE3=A Big Man
TTITLE4=Lost And Gone
TTITLE5=Mexico City
TTITLE6=John Lee Boogie
TTITLE7=Reaching For A  Mountain
TTITLE8=Baby What You Want Me To Do
EXTD=YEAR: 1981
EXTT0=
EXTT1=
EXTT2=
EXTT3=
EXTT4=
EXTT5=
EXTT6=
EXTT7=
EXTT8=
PLAYORDER=
